<svg width="82" height="101" viewBox="0 0 82 101" fill="none" xmlns="http://www.w3.org/2000/svg">
<path d="M68.2258 54.0268C68.2752 50.1938 69.2933 46.4356 71.1854 43.1019C73.0775 39.7682 75.7821 36.9672 79.0476 34.9596C76.9732 31.9969 74.2364 29.5587 71.0548 27.8387C67.8732 26.1187 64.3344 25.1642 60.7194 25.0511C53.0079 24.2417 45.5321 29.6655 41.6024 29.6655C37.5967 29.6655 31.5465 25.1315 25.0314 25.2655C20.8172 25.4017 16.7102 26.6271 13.1105 28.8225C9.51073 31.0178 6.54105 34.1082 4.49078 37.7925C-4.39034 53.1691 2.23419 75.7676 10.7417 88.197C14.9982 94.2833 19.9729 101.082 26.4821 100.841C32.8518 100.577 35.2308 96.7791 42.9195 96.7791C50.5369 96.7791 52.7688 100.841 59.4101 100.688C66.2451 100.577 70.5514 94.5742 74.6587 88.4302C77.717 84.0935 80.0703 79.3005 81.6316 74.2288C77.6606 72.5493 74.272 69.738 71.888 66.1455C69.5041 62.553 68.2304 58.3383 68.2258 54.0268Z" fill="black"/>
<path d="M55.6862 16.8764C59.4129 12.4026 61.2489 6.65232 60.8043 0.84668C55.1108 1.44468 49.8515 4.16583 46.0745 8.46795C44.2277 10.5697 42.8133 13.0147 41.9121 15.6634C41.0109 18.312 40.6406 21.1123 40.8223 23.9042C43.6701 23.9335 46.4874 23.3162 49.0621 22.0989C51.6368 20.8816 53.9016 19.0959 55.6862 16.8764V16.8764Z" fill="black"/>
</svg>
