<svg width="53" height="100" viewBox="0 0 53 100" fill="none" xmlns="http://www.w3.org/2000/svg">
<path fill-rule="evenodd" clip-rule="evenodd" d="M38.7168 29.8092C39.3331 29.4384 39.9413 28.4862 40.3033 27.8677C40.7917 27.0335 41.0195 26.3129 41.2974 25.3895C41.5205 24.6467 41.6512 23.569 41.6477 22.7415C41.6364 19.0728 39.2884 13.8465 37.2498 11.491C35.874 13.1178 34.5146 18.3631 34.3415 20.6012C34.1933 22.5197 34.4747 23.9804 35.4047 26.0281C35.7199 26.7333 36.2912 27.6032 36.8128 28.1776C37.2794 28.6998 38.1997 29.6034 38.7168 29.8092Z" fill="black"/>
<path fill-rule="evenodd" clip-rule="evenodd" d="M25.5237 9.86516C26.466 13.2773 27.6949 16.3547 31.7924 17.7168C32.7023 14.9028 33.8785 13.1999 32.8188 9.36263C31.9916 6.36743 28.0684 0.636898 26.3839 0C25.8412 0.69485 25.9522 1.09676 25.8387 2.12099C25.613 4.16907 24.7825 7.18164 25.5237 9.86516Z" fill="black"/>
<path fill-rule="evenodd" clip-rule="evenodd" d="M39.9908 39.0693C40.4042 40.5662 41.0156 41.3186 41.4691 42.5506C44.4597 41.6292 46.4845 38.2043 47.1949 35.4616C47.9088 32.6944 47.5244 28.2956 46.4729 24.4884C44.2296 27.1482 40.8344 30.2584 39.9805 34.3847C39.7006 35.7421 39.4913 37.2607 39.9908 39.0693Z" fill="black"/>
<path fill-rule="evenodd" clip-rule="evenodd" d="M30.6858 57.319C31.7985 61.3477 35.5433 64.7923 38.3778 64.7671C39.3742 61.6825 39.5399 58.0137 37.14 54.7022C36.2744 53.4971 35.0343 52.0458 33.9373 51.0862L30.4275 48.0245C29.9516 48.6355 30.0799 49.0738 30.0515 50.0488C29.9837 52.1745 30.098 55.1905 30.6858 57.319Z" fill="black"/>
<path fill-rule="evenodd" clip-rule="evenodd" d="M31.3314 22.535C29.7215 16.7059 25.5782 14.4473 20.5131 13.8504C19.2972 13.7116 16.6609 13.287 15.2669 13.5599C17.5791 17.8367 21.2068 22.3818 25.9541 23.2C27.5458 23.4696 29.855 23.356 31.3314 22.535Z" fill="black"/>
<path fill-rule="evenodd" clip-rule="evenodd" d="M41.4488 52.6818C46.4874 51.2535 47.1419 50.9368 49.8231 46.0876C50.5698 44.7276 52.0739 39.6801 51.9947 37.9896C50.4664 38.4229 48.1126 39.7785 46.8526 40.5366C43.1063 42.8118 40.4343 45.8806 40.4969 50.518C40.5074 51.5233 40.4241 52.9723 41.4488 52.6818Z" fill="black"/>
<path fill-rule="evenodd" clip-rule="evenodd" d="M40.2522 63.1951C41.6949 63.4509 43.4319 62.8111 44.8996 62.3951C48.1474 61.4744 50.9149 56.5595 51.9632 53.6311C52.3634 52.5094 53.0451 50.9718 52.9976 49.9534C48.9029 51.1142 45.733 52.4063 43.3414 54.5923C41.3571 56.4078 39.6504 60.0225 40.2522 63.1951Z" fill="black"/>
<path fill-rule="evenodd" clip-rule="evenodd" d="M38.6146 36.8621C38.4127 32.1566 37.0523 29.3391 32.7191 26.8867C31.1191 25.9723 27.0427 23.9557 25.3207 23.9765C26.3159 27.5801 28.2292 31.7901 30.0813 33.8226C31.7374 35.6394 35.5445 37.7324 38.6146 36.8621Z" fill="black"/>
<path fill-rule="evenodd" clip-rule="evenodd" d="M30.2111 42.6199C30.9458 45.2802 32.0426 47.2644 33.8083 48.779C34.8446 49.6659 37.7664 51.0665 39.1946 51.0065C40.2697 45.9567 38.7634 42.4008 34.8114 39.0207C33.6494 38.0308 30.5635 35.7997 29.2306 35.358C29.0306 36.5055 29.7452 40.933 30.2111 42.6199Z" fill="black"/>
<path fill-rule="evenodd" clip-rule="evenodd" d="M34.912 73.5519C41.2981 74.9624 45.3376 70.9414 48.3261 65.7752C48.919 64.7625 49.8935 64.0853 49.879 62.8025C48.037 63.3247 46.7899 63.1623 44.7607 63.7375C41.3406 64.707 39.0906 65.0663 36.7679 68.1171C35.9279 69.2235 34.5996 71.8951 34.912 73.5519Z" fill="black"/>
<path fill-rule="evenodd" clip-rule="evenodd" d="M6.69013 96.6393C13.7011 104.135 22.6561 96.8672 25.2433 96.0675C23.3342 94.4123 16.4511 91.7909 12.8129 92.8222C9.35366 93.8028 9.46673 93.9757 6.69013 96.6393Z" fill="black"/>
<path fill-rule="evenodd" clip-rule="evenodd" d="M27.2033 82.7611C27.8239 83.2574 29.2954 83.5861 30.077 83.7242C33.6222 84.3746 37.5847 82.2357 40.0039 79.9181C40.667 79.2805 41.3989 78.482 41.9759 77.7951C42.5392 77.1431 43.1793 76.1332 43.9555 75.6684L43.823 75.1886C42.0064 75.54 33.7118 73.475 29.411 78.537C28.5292 79.5815 27.1872 81.299 27.2033 82.7611Z" fill="black"/>
<path fill-rule="evenodd" clip-rule="evenodd" d="M7.35275 92.551C13.132 90.9128 15.7676 88.0592 16.9359 81.7698L17.6365 76.8836C15.2098 77.8015 11.017 80.7103 9.25599 82.8664C7.2867 85.2672 6.21293 88.4239 7.35275 92.551Z" fill="black"/>
<path fill-rule="evenodd" clip-rule="evenodd" d="M24.7396 11.6736C23.5828 7.48493 21.8848 5.31144 18.3571 3.67288C16.8733 2.9791 11.4127 1.29735 9.6657 1.63781C12.5053 6.88835 15.4735 13.1933 22.5708 12.7055C24.1632 12.599 25.0061 12.6387 24.7396 11.6736Z" fill="black"/>
<path fill-rule="evenodd" clip-rule="evenodd" d="M26.2578 68.2029C27.5532 72.8932 29.1991 72.975 31.7868 75.2161C35.343 70.996 33.3629 64.9358 30.4273 61.0303L27.2605 56.9869C26.2986 58.2354 25.4204 65.1708 26.2578 68.2029Z" fill="black"/>
<path fill-rule="evenodd" clip-rule="evenodd" d="M22.0447 84.4858C25.2205 82.7159 26.9767 77.2931 25.9293 73.501C25.1569 70.704 24.6791 68.4219 23.3172 65.9144C22.6587 66.3059 16.1081 75.6129 20.4808 82.2405C21.0165 83.0394 21.6534 83.7683 22.0447 84.4858Z" fill="black"/>
<path fill-rule="evenodd" clip-rule="evenodd" d="M17.5123 89.4087C17.9619 90.658 19.093 91.042 19.9988 91.425C23.6719 92.9486 24.8263 92.5388 28.5844 91.4735C30.7025 90.8731 34.4023 88.5138 35.6564 87.3873C33.9687 86.0394 25.9432 83.5767 21.3032 86.0964C19.0234 87.3411 18.3916 88.8808 17.5123 89.4087Z" fill="black"/>
<path fill-rule="evenodd" clip-rule="evenodd" d="M0.11498 96.9466C1.01543 100.207 5.76998 98.8592 4.86952 95.5988C4.04269 92.6049 -0.802086 93.626 0.11498 96.9466Z" fill="black"/>
</svg>
