<svg width="54" height="101" viewBox="0 0 54 101" fill="none" xmlns="http://www.w3.org/2000/svg">
<path fill-rule="evenodd" clip-rule="evenodd" d="M14.5527 30.1866C13.9247 29.8158 13.3051 28.8637 12.9362 28.2451C12.4387 27.4109 12.2065 26.6904 11.9234 25.767C11.6961 25.0241 11.5629 23.9464 11.5665 23.119C11.578 19.4503 13.9703 14.224 16.0473 11.8684C17.4491 13.4952 18.8341 18.7406 19.0106 20.9787C19.1616 22.8972 18.8749 24.3578 17.9273 26.4055C17.6061 27.1107 17.0241 27.9806 16.4926 28.555C16.0172 29.0773 15.0795 29.9809 14.5527 30.1866Z" fill="black"/>
<path fill-rule="evenodd" clip-rule="evenodd" d="M27.9948 10.2426C27.0346 13.6548 25.7826 16.7321 21.6078 18.0942C20.6806 15.2802 19.4822 13.5774 20.562 9.74007C21.4048 6.74487 25.402 1.01434 27.1183 0.377441C27.6713 1.07229 27.5582 1.4742 27.6738 2.49843C27.9038 4.54651 28.7499 7.55908 27.9948 10.2426Z" fill="black"/>
<path fill-rule="evenodd" clip-rule="evenodd" d="M13.2547 39.4468C12.8335 40.9437 12.2105 41.6961 11.7484 42.9281C8.70142 42.0066 6.63842 38.5818 5.91459 35.8391C5.1873 33.0718 5.57889 28.6731 6.6502 24.8658C8.93586 27.5257 12.3951 30.6359 13.2652 34.7621C13.5504 36.1195 13.7636 37.6381 13.2547 39.4468Z" fill="black"/>
<path fill-rule="evenodd" clip-rule="evenodd" d="M22.7352 57.6964C21.6016 61.7251 17.786 65.1698 14.8981 65.1446C13.8829 62.0599 13.714 58.3911 16.1592 55.0797C17.0412 53.8746 18.3046 52.4233 19.4223 51.4636L22.9984 48.4019C23.4833 49.0129 23.3526 49.4512 23.3815 50.4263C23.4505 52.5519 23.3341 55.5679 22.7352 57.6964Z" fill="black"/>
<path fill-rule="evenodd" clip-rule="evenodd" d="M22.0775 22.9125C23.7177 17.0834 27.9392 14.8248 33.0999 14.2279C34.3387 14.089 37.0247 13.6645 38.4451 13.9373C36.0892 18.2141 32.3931 22.7592 27.5562 23.5774C25.9344 23.847 23.5817 23.7334 22.0775 22.9125Z" fill="black"/>
<path fill-rule="evenodd" clip-rule="evenodd" d="M11.7692 53.0593C6.63543 51.6309 5.96862 51.3142 3.23685 46.4651C2.47602 45.1051 0.943613 40.0575 1.0243 38.3671C2.58143 38.8003 4.97963 40.156 6.26338 40.9141C10.0804 43.1892 12.8028 46.258 12.739 50.8954C12.7283 51.9007 12.8132 53.3497 11.7692 53.0593Z" fill="black"/>
<path fill-rule="evenodd" clip-rule="evenodd" d="M12.9883 63.5725C11.5184 63.8284 9.74863 63.1886 8.25324 62.7725C4.94417 61.8518 2.1244 56.9369 1.05635 54.0086C0.648596 52.8868 -0.0459933 51.3492 0.00239837 50.3309C4.17441 51.4916 7.4041 52.7838 9.84085 54.9697C11.8626 56.7852 13.6015 60.3999 12.9883 63.5725Z" fill="black"/>
<path fill-rule="evenodd" clip-rule="evenodd" d="M14.6568 37.2396C14.8625 32.5341 16.2486 29.7165 20.6636 27.2641C22.2937 26.3497 26.4471 24.3331 28.2016 24.354C27.1876 27.9575 25.2381 32.1675 23.3511 34.2C21.6638 36.0169 17.7848 38.1099 14.6568 37.2396Z" fill="black"/>
<path fill-rule="evenodd" clip-rule="evenodd" d="M23.2189 42.9974C22.4703 45.6577 21.3528 47.6419 19.5538 49.1564C18.498 50.0434 15.521 51.4439 14.0659 51.384C12.9705 46.3342 14.5052 42.7782 18.5318 39.3982C19.7157 38.4083 22.8598 36.1772 24.2179 35.7354C24.4217 36.8829 23.6936 41.3104 23.2189 42.9974Z" fill="black"/>
<path fill-rule="evenodd" clip-rule="evenodd" d="M18.4293 73.9293C11.9227 75.3399 7.80702 71.3189 4.7621 66.1526C4.158 65.1399 3.16509 64.4627 3.17988 63.18C5.05667 63.7021 6.32725 63.5397 8.39474 64.115C11.8794 65.0845 14.1719 65.4437 16.5383 68.4945C17.3942 69.6009 18.7475 72.2726 18.4293 73.9293Z" fill="black"/>
<path fill-rule="evenodd" clip-rule="evenodd" d="M47.1836 97.0167C40.0404 104.512 30.9164 97.2446 28.2804 96.4449C30.2255 94.7897 37.2385 92.1683 40.9454 93.1997C44.4699 94.1803 44.3547 94.3531 47.1836 97.0167Z" fill="black"/>
<path fill-rule="evenodd" clip-rule="evenodd" d="M26.2834 83.1385C25.6512 83.6348 24.1518 83.9635 23.3555 84.1017C19.7434 84.7521 15.7061 82.6131 13.2413 80.2956C12.5657 79.658 11.82 78.8594 11.2321 78.1726C10.6582 77.5205 10.006 76.5106 9.21511 76.0459L9.35014 75.5661C11.201 75.9174 19.6521 73.8524 24.0341 78.9145C24.9325 79.959 26.2999 81.6764 26.2834 83.1385Z" fill="black"/>
<path fill-rule="evenodd" clip-rule="evenodd" d="M46.5085 92.9285C40.6202 91.2902 37.9349 88.4366 36.7446 82.1472L36.0307 77.261C38.5032 78.1789 42.7751 81.0877 44.5694 83.2438C46.5758 85.6446 47.6698 88.8014 46.5085 92.9285Z" fill="black"/>
<path fill-rule="evenodd" clip-rule="evenodd" d="M28.7936 12.051C29.9723 7.86237 31.7022 5.68888 35.2965 4.05032C36.8083 3.35655 42.3719 1.67479 44.1519 2.01525C41.2588 7.26579 38.2346 13.5707 31.0033 13.083C29.3809 12.9765 28.522 13.0161 28.7936 12.051Z" fill="black"/>
<path fill-rule="evenodd" clip-rule="evenodd" d="M27.2467 68.5803C25.9269 73.2707 24.25 73.3525 21.6134 75.5936C17.9901 71.3735 20.0076 65.3132 22.9986 61.4077L26.2252 57.3643C27.2052 58.6129 28.0999 65.5482 27.2467 68.5803Z" fill="black"/>
<path fill-rule="evenodd" clip-rule="evenodd" d="M31.5394 84.8633C28.3036 83.0933 26.5143 77.6706 27.5814 73.8784C28.3685 71.0814 28.8553 68.7994 30.2428 66.2918C30.9137 66.6834 37.588 75.9903 33.1328 82.6179C32.587 83.4168 31.938 84.1458 31.5394 84.8633Z" fill="black"/>
<path fill-rule="evenodd" clip-rule="evenodd" d="M36.1573 89.7861C35.6992 91.0355 34.5468 91.4194 33.6239 91.8024C29.8814 93.326 28.7053 92.9163 24.8763 91.8509C22.7182 91.2505 18.9486 88.8912 17.6708 87.7648C19.3904 86.4168 27.5673 83.9542 32.2948 86.4738C34.6177 87.7186 35.2614 89.2583 36.1573 89.7861Z" fill="black"/>
<path fill-rule="evenodd" clip-rule="evenodd" d="M53.8829 97.324C52.9654 100.584 48.1212 99.2366 49.0386 95.9762C49.881 92.9824 54.8172 94.0034 53.8829 97.324Z" fill="black"/>
</svg>
