<?xml version="1.0" encoding="UTF-8"?>
<svg version="1.1" xmlns="http://www.w3.org/2000/svg" width="1200" height="1200">
<path d="M0 0 C1.38703951 -0.00702117 2.77407869 -0.014108 4.16111755 -0.02125549 C8.57226014 -0.04066748 12.98335026 -0.04568976 17.39453125 -0.046875 C18.14575005 -0.04731686 18.89696884 -0.04775871 19.67095184 -0.04821396 C42.31543017 -0.05520157 64.72278881 0.23328747 87.20703125 3.203125 C88.5422525 3.37161133 89.87754055 3.53956904 91.21289062 3.70703125 C152.1558499 11.46229123 210.25547543 29.80523407 265.20703125 57.203125 C266.11791504 57.65655273 267.02879883 58.10998047 267.96728516 58.57714844 C311.40243375 80.36235394 350.18933246 109.80625307 386.20703125 142.203125 C385.33007464 146.86814593 382.49860234 149.33511778 379.22929382 152.57527161 C378.28281966 153.53088243 378.28281966 153.53088243 377.3172248 154.50579852 C375.19476213 156.64494971 373.06168222 158.7731868 370.9284668 160.90161133 C369.40712443 162.43029045 367.88640762 163.95959233 366.36627197 165.48947144 C362.23087621 169.64712946 358.08584001 173.79504783 353.93835425 177.94064164 C350.48121436 181.39766209 347.02842142 184.85900828 343.57551605 188.32025737 C335.43345983 196.48156341 327.28323518 204.63464982 319.12817383 212.78295898 C310.70277997 221.20170546 302.29226702 229.63511422 293.88875169 238.07569486 C286.68239237 245.31268866 279.46646583 252.54004469 272.24282295 259.75978678 C267.92441445 264.07612189 263.60991606 268.3961969 259.30475426 272.72574806 C255.25864321 276.79402115 251.20078723 280.850192 247.13339233 284.89718246 C245.63907663 286.3880698 244.14905588 287.88327565 242.66358376 289.38297462 C240.64225244 291.42232984 238.60629779 293.44582755 236.5657196 295.46589661 C235.67957435 296.37081863 235.67957435 296.37081863 234.77552718 297.2940219 C233.1171217 298.91665363 233.1171217 298.91665363 230.20703125 301.203125 C226.20204368 300.72741181 224.36419371 298.72187025 221.51953125 295.953125 C164.84075423 242.60265226 84.69948785 218.34737772 8.05126953 220.34375 C-66.76519651 223.09969284 -139.17457607 252.65723231 -194.47265625 303.1015625 C-196.48694606 304.92595294 -198.53445489 306.69406302 -200.60546875 308.453125 C-209.3381523 316.08980373 -217.43242839 324.38915296 -224.6328125 333.484375 C-226.87278493 336.30358081 -229.20190761 339.03000299 -231.54296875 341.765625 C-285.31409564 406.55610454 -312.05361809 494.13644343 -305.10546875 577.890625 C-302.15085926 608.69002402 -295.01968927 639.36081207 -283.79296875 668.203125 C-283.25615479 669.58927002 -283.25615479 669.58927002 -282.70849609 671.00341797 C-270.66006272 701.76439916 -254.55847973 730.46882646 -233.79296875 756.203125 C-232.99375 757.21375 -232.19453125 758.224375 -231.37109375 759.265625 C-222.67792303 770.11667498 -213.0723097 780.0268903 -203.29296875 789.890625 C-202.42704102 790.76960449 -201.56111328 791.64858398 -200.66894531 792.55419922 C-194.6922554 798.53876207 -188.44299844 803.98027341 -181.79296875 809.203125 C-180.58737305 810.15119019 -180.58737305 810.15119019 -179.35742188 811.1184082 C-132.94176106 847.19102886 -79.17016979 870.36156402 -20.79296875 878.203125 C-19.93735352 878.32026855 -19.08173828 878.43741211 -18.20019531 878.55810547 C43.49678141 886.58945273 111.51867218 876.01930918 167.20703125 848.203125 C168.10502441 847.76419922 169.00301758 847.32527344 169.92822266 846.87304688 C204.56331744 829.87176123 237.38736077 805.84680919 261.20703125 775.203125 C261.99464844 774.22085938 262.78226563 773.23859375 263.59375 772.2265625 C289.36036314 739.8438532 303.69153743 703.16819905 313.20703125 663.203125 C215.85703125 663.203125 118.50703125 663.203125 18.20703125 663.203125 C18.20703125 592.913125 18.20703125 522.623125 18.20703125 450.203125 C189.47703125 450.203125 360.74703125 450.203125 537.20703125 450.203125 C541.90697435 481.22274947 546.31833025 511.78484863 546.41015625 543.1171875 C546.41721936 544.60919222 546.42435206 546.10119661 546.43154907 547.59320068 C546.45108653 552.33818047 546.45624135 557.08310876 546.45703125 561.828125 C546.45732582 562.63695381 546.45762039 563.44578262 546.45792389 564.2791214 C546.45929682 587.6056026 546.41960123 610.81934262 543.48565674 633.99743652 C543.18396935 636.38569036 542.89441799 638.77527116 542.60498047 641.16503906 C531.54906912 731.23429224 501.9091999 821.51884283 444.20703125 899.203125 C443.66304687 899.93112305 443.1190625 900.65912109 442.55859375 901.40917969 C432.94512332 914.2553488 422.83676988 926.50612073 411.91015625 938.25390625 C409.85725687 940.46817897 407.87753241 942.73630029 405.90625 945.0234375 C402.04142771 949.45649255 397.93811924 953.61954964 393.76953125 957.765625 C393.05732422 958.48169922 392.34511719 959.19777344 391.61132812 959.93554688 C387.532607 964.00685888 383.35637149 967.90221129 378.9909668 971.66430664 C376.73141764 973.61338812 374.53320529 975.62605568 372.33203125 977.640625 C367.44728425 982.04210175 362.39231778 986.16254354 357.20703125 990.203125 C355.76070312 991.34201172 355.76070312 991.34201172 354.28515625 992.50390625 C327.41870535 1013.45572804 298.59014998 1030.85652291 268.20703125 1046.203125 C266.91224854 1046.85861328 266.91224854 1046.85861328 265.59130859 1047.52734375 C208.14163951 1076.36865281 143.98010194 1092.0852504 80.20703125 1098.203125 C78.87535919 1098.3339296 78.87535919 1098.3339296 77.51678467 1098.46737671 C59.88288284 1100.15241706 42.33011525 1100.54885654 24.63330078 1100.51879883 C21.69662067 1100.51418739 18.76035685 1100.52104027 15.82373047 1100.53930664 C-0.49443346 1100.6396456 -16.6658914 1100.2926096 -32.92578125 1098.828125 C-33.60798737 1098.76682718 -34.29019348 1098.70552937 -34.99307251 1098.64237404 C-126.08324244 1090.26631916 -217.86858149 1058.10866003 -298.70068359 1000.73779297 C-300.98957679 999.05891518 -303.29133818 997.39856429 -305.59375 995.73828125 C-313.9529058 989.67981053 -322.0903235 983.47964884 -329.88671875 976.7109375 C-332.64319217 974.3323677 -335.45259818 972.04281864 -338.29296875 969.765625 C-344.09467527 965.0370665 -349.55818464 959.98575604 -355.01464844 954.86816406 C-356.90685477 953.09649366 -358.80628838 951.33281953 -360.70703125 949.5703125 C-362.02747269 948.34388881 -363.34778762 947.1173289 -364.66796875 945.890625 C-365.27415039 945.32835205 -365.88033203 944.7660791 -366.50488281 944.18676758 C-372.51870236 938.5811818 -378.28895764 932.85812439 -383.65234375 926.625 C-385.87756803 924.10741048 -388.16264785 921.65655129 -390.46264648 919.20751953 C-396.52624447 912.74720511 -402.27502273 906.14050859 -407.79296875 899.203125 C-408.71238752 898.07457958 -409.63302911 896.94702962 -410.5546875 895.8203125 C-447.19698264 850.83835966 -476.06857654 799.32783351 -496.79296875 745.203125 C-497.18677734 744.1812207 -497.58058594 743.15931641 -497.98632812 742.10644531 C-518.86783888 687.45425008 -531.79270148 627.16818347 -531.99609375 568.55859375 C-532.00311439 567.18849658 -532.01020122 565.81839974 -532.01734924 564.44830322 C-532.03674681 560.09573902 -532.04178294 555.74322807 -532.04296875 551.390625 C-532.04341061 550.64957142 -532.04385246 549.90851784 -532.04430771 549.14500809 C-532.05112606 527.35027726 -531.81384307 505.83422118 -528.79296875 484.203125 C-528.61336199 482.84972796 -528.43468445 481.49620734 -528.25683594 480.14257812 C-515.57342111 384.48808697 -478.09055894 293.04071528 -376.390625 166.8359375 C-374.66121786 165.06847495 -373.07643804 163.21662694 -371.48046875 161.328125 C-368.03929389 157.33142416 -364.21748918 153.90104658 -360.26171875 150.421875 C-358.0336275 148.41941324 -355.93837749 146.35432583 -353.85546875 144.203125 C-350.01327571 140.29908579 -345.84345055 136.90914337 -341.57421875 133.484375 C-338.9377687 131.32189349 -336.42428169 129.07664083 -333.91796875 126.765625 C-328.15729546 121.53684486 -322.02122505 116.85184094 -315.79296875 112.203125 C-315.05272461 111.64898926 -314.31248047 111.09485352 -313.54980469 110.52392578 C-304.13364476 103.48778012 -294.69546309 96.5455815 -284.79296875 90.203125 C-284.1292627 89.77354492 -283.46555664 89.34396484 -282.78173828 88.90136719 C-247.27465195 65.94331757 -209.61105079 46.51421538 -169.79296875 32.203125 C-168.56819824 31.7611377 -167.34342773 31.31915039 -166.08154297 30.86376953 C-113.25354056 11.93790092 -56.24601647 0.19282682 0 0 Z " fill="#34A853" transform="translate(581.79296875,49.796875)"/>
<path d="M0 0 C1.38703951 -0.00702117 2.77407869 -0.014108 4.16111755 -0.02125549 C8.57226014 -0.04066748 12.98335026 -0.04568976 17.39453125 -0.046875 C18.14575005 -0.04731686 18.89696884 -0.04775871 19.67095184 -0.04821396 C42.31543017 -0.05520157 64.72278881 0.23328747 87.20703125 3.203125 C88.5422525 3.37161133 89.87754055 3.53956904 91.21289062 3.70703125 C152.1558499 11.46229123 210.25547543 29.80523407 265.20703125 57.203125 C266.11791504 57.65655273 267.02879883 58.10998047 267.96728516 58.57714844 C311.40243375 80.36235394 350.18933246 109.80625307 386.20703125 142.203125 C385.33007464 146.86814593 382.49860234 149.33511778 379.22929382 152.57527161 C378.28281966 153.53088243 378.28281966 153.53088243 377.3172248 154.50579852 C375.19476213 156.64494971 373.06168222 158.7731868 370.9284668 160.90161133 C369.40712443 162.43029045 367.88640762 163.95959233 366.36627197 165.48947144 C362.23087621 169.64712946 358.08584001 173.79504783 353.93835425 177.94064164 C350.48121436 181.39766209 347.02842142 184.85900828 343.57551605 188.32025737 C335.43345983 196.48156341 327.28323518 204.63464982 319.12817383 212.78295898 C310.70277997 221.20170546 302.29226702 229.63511422 293.88875169 238.07569486 C286.68239237 245.31268866 279.46646583 252.54004469 272.24282295 259.75978678 C267.92441445 264.07612189 263.60991606 268.3961969 259.30475426 272.72574806 C255.25864321 276.79402115 251.20078723 280.850192 247.13339233 284.89718246 C245.63907663 286.3880698 244.14905588 287.88327565 242.66358376 289.38297462 C240.64225244 291.42232984 238.60629779 293.44582755 236.5657196 295.46589661 C235.67957435 296.37081863 235.67957435 296.37081863 234.77552718 297.2940219 C233.1171217 298.91665363 233.1171217 298.91665363 230.20703125 301.203125 C226.20204368 300.72741181 224.36419371 298.72187025 221.51953125 295.953125 C164.84075423 242.60265226 84.69948785 218.34737772 8.05126953 220.34375 C-66.76519651 223.09969284 -139.17457607 252.65723231 -194.47265625 303.1015625 C-196.48694606 304.92595294 -198.53445489 306.69406302 -200.60546875 308.453125 C-209.3381523 316.08980373 -217.43242839 324.38915296 -224.6328125 333.484375 C-226.87278493 336.30358081 -229.20190761 339.03000299 -231.54296875 341.765625 C-285.31409564 406.55610454 -312.05361809 494.13644343 -305.10546875 577.890625 C-303.00919784 599.74254296 -298.39427208 620.89303294 -292.46484375 641.9765625 C-291.23452059 646.39501606 -290.25051773 650.64109251 -289.79296875 655.203125 C-299.11358928 662.51405065 -308.4808521 669.75087849 -317.98046875 676.828125 C-324.60859364 681.77009769 -331.13772414 686.8068039 -337.56982422 692.00097656 C-341.89074109 695.4901787 -346.26116866 698.9014552 -350.671875 702.27685547 C-361.3382089 710.44124967 -371.91877804 718.71774576 -382.47338867 727.02587891 C-389.45201308 732.51513237 -396.46694903 737.95772219 -403.47851562 743.40478516 C-407.25112509 746.33611863 -411.0219723 749.26971698 -414.79296875 752.203125 C-416.29295998 753.36980294 -417.79295999 754.5364696 -419.29296875 755.703125 C-420.03546875 756.280625 -420.77796875 756.858125 -421.54296875 757.453125 C-423.79296875 759.203125 -426.04296875 760.953125 -428.29296875 762.703125 C-429.03587158 763.28094727 -429.77877441 763.85876953 -430.54418945 764.45410156 C-432.04008537 765.61755812 -433.5360162 766.78096978 -435.03198242 767.94433594 C-438.84506651 770.90974498 -442.65748939 773.87599762 -446.46875 776.84375 C-455.22205312 783.65838979 -463.989794 790.45298747 -472.79296875 797.203125 C-476.74292482 792.2716603 -479.08623681 786.59220155 -481.73046875 780.890625 C-482.1564032 779.97266647 -482.1564032 779.97266647 -482.59094238 779.03616333 C-506.11743835 728.12199644 -521.22878284 673.75514024 -528.52868652 618.19458008 C-528.7768515 616.32457388 -529.03693969 614.45616096 -529.29785156 612.58789062 C-534.87594136 571.26614054 -534.5556669 525.46716474 -528.79296875 484.203125 C-528.61336199 482.84972796 -528.43468445 481.49620734 -528.25683594 480.14257812 C-515.57342111 384.48808697 -478.09055894 293.04071528 -376.390625 166.8359375 C-374.66121786 165.06847495 -373.07643804 163.21662694 -371.48046875 161.328125 C-368.03929389 157.33142416 -364.21748918 153.90104658 -360.26171875 150.421875 C-358.0336275 148.41941324 -355.93837749 146.35432583 -353.85546875 144.203125 C-350.01327571 140.29908579 -345.84345055 136.90914337 -341.57421875 133.484375 C-338.9377687 131.32189349 -336.42428169 129.07664083 -333.91796875 126.765625 C-328.15729546 121.53684486 -322.02122505 116.85184094 -315.79296875 112.203125 C-315.05272461 111.64898926 -314.31248047 111.09485352 -313.54980469 110.52392578 C-304.13364476 103.48778012 -294.69546309 96.5455815 -284.79296875 90.203125 C-284.1292627 89.77354492 -283.46555664 89.34396484 -282.78173828 88.90136719 C-247.27465195 65.94331757 -209.61105079 46.51421538 -169.79296875 32.203125 C-168.56819824 31.7611377 -167.34342773 31.31915039 -166.08154297 30.86376953 C-113.25354056 11.93790092 -56.24601647 0.19282682 0 0 Z " fill="#EA4334" transform="translate(581.79296875,49.796875)"/>
<path d="M0 0 C171.27 0 342.54 0 519 0 C523.6999431 31.01962447 528.111299 61.58172363 528.203125 92.9140625 C528.21018811 94.40606722 528.21732081 95.89807161 528.22451782 97.39007568 C528.24405528 102.13505547 528.2492101 106.87998376 528.25 111.625 C528.25044186 112.83824322 528.25044186 112.83824322 528.25089264 114.0759964 C528.25226557 137.4024776 528.21256998 160.61621762 525.27862549 183.79431152 C524.9769381 186.18256536 524.68738674 188.57214616 524.39794922 190.96191406 C513.34203787 281.03116724 483.70216865 371.31571783 426 449 C425.45601562 449.72799805 424.91203125 450.45599609 424.3515625 451.20605469 C414.73809207 464.0522238 404.62973863 476.30299573 393.703125 488.05078125 C391.65697476 490.25841932 389.6812828 492.51803473 387.71484375 494.796875 C383.74785608 499.34559408 379.56431584 503.65582066 375.3125 507.9375 C374.19391602 509.08702148 374.19391602 509.08702148 373.05273438 510.25976562 C372.33021484 510.98744141 371.60769531 511.71511719 370.86328125 512.46484375 C370.21657471 513.120896 369.56986816 513.77694824 368.90356445 514.45288086 C366.86449054 516.11013511 365.60614409 516.74813732 363 517 C360.66015625 515.48046875 360.66015625 515.48046875 358.0625 513.1875 C356.59683594 511.93066406 356.59683594 511.93066406 355.1015625 510.6484375 C354.59012695 510.20725586 354.07869141 509.76607422 353.55175781 509.31152344 C351.08099142 507.22326713 348.5102022 505.27296421 345.9375 503.3125 C344.83562219 502.47046453 343.7340725 501.62799956 342.6328125 500.78515625 C342.05176758 500.34059082 341.47072266 499.89602539 340.87207031 499.43798828 C337.3397556 496.72472098 333.82696413 493.98632336 330.3125 491.25 C329.55122803 490.65743408 328.78995605 490.06486816 328.00561523 489.4543457 C326.44718846 488.24114729 324.88883936 487.0278491 323.33056641 485.81445312 C319.55482736 482.87486664 315.77736693 479.93749416 312 477 C307.44050616 473.45427972 302.8814516 469.90800104 298.32421875 466.359375 C290.70198363 460.42528592 283.0686055 454.5072123 275.40625 448.625 C270.47145464 444.82900357 265.56454869 440.99701961 260.65234375 437.171875 C256.27855923 433.76757571 251.89641293 430.37502406 247.5 427 C240.08386871 421.30530446 232.70801416 415.55912408 225.33056641 409.81445312 C222.2995409 407.45466038 219.26753662 405.09613011 216.23461914 402.73876953 C214.7520371 401.58516423 213.27074002 400.4299055 211.79077148 399.27294922 C207.84481937 396.19167908 203.87550487 393.1482592 199.8671875 390.1484375 C198.61421875 389.20097656 198.61421875 389.20097656 197.3359375 388.234375 C195.72648302 387.01834272 194.10953071 385.81215493 192.484375 384.6171875 C191.76507812 384.070625 191.04578125 383.5240625 190.3046875 382.9609375 C189.66515137 382.48446777 189.02561523 382.00799805 188.36669922 381.51708984 C187 380 187 380 187 376 C189.03525267 374.28819078 190.97125345 372.87690295 193.1875 371.4375 C200.56207426 366.41665343 207.30442518 360.88486021 214 355 C214.88558594 354.2265625 215.77117187 353.453125 216.68359375 352.65625 C226.32330793 344.11435038 235.04228647 335.13172806 243 325 C243.79148437 324.01386719 244.58296875 323.02773438 245.3984375 322.01171875 C271.08145531 289.48259682 285.46004306 253.06781914 295 213 C197.65 213 100.3 213 0 213 C0 142.71 0 72.42 0 0 Z " fill="#4185F3" transform="translate(600,500)"/>
<path d="M0 0 C5.08056695 3.26895433 9.81396591 6.89400893 14.5625 10.625 C16.17816701 11.88830021 17.79405347 13.15131981 19.41015625 14.4140625 C20.19664551 15.02926758 20.98313477 15.64447266 21.79345703 16.27832031 C24.68429871 18.53393168 27.5903717 20.76866722 30.5 23 C39.4852752 29.89960906 48.41442988 36.87151119 57.35253906 43.83203125 C68.40698713 52.44092749 68.40698713 52.44092749 79.5 61 C88.4852752 67.89960906 97.41442988 74.87151119 106.35253906 81.83203125 C117.40698713 90.44092749 117.40698713 90.44092749 128.5 99 C137.4852752 105.89960906 146.41442988 112.87151119 155.35253906 119.83203125 C164.87961958 127.25036656 174.41800206 134.65267296 184 142 C183.4185882 147.79701764 181.89582636 153.20796176 180.32080078 158.80834961 C163.48787469 218.80587209 164.49931199 278.93448556 181.328125 338.7734375 C182.55844816 343.19189106 183.54245102 347.43796751 184 352 C174.67937947 359.31092565 165.31211665 366.54775349 155.8125 373.625 C149.18437511 378.56697269 142.65524461 383.6036789 136.22314453 388.79785156 C131.90222766 392.2870537 127.53180009 395.6983302 123.12109375 399.07373047 C112.45475985 407.23812467 101.87419071 415.51462076 91.31958008 423.82275391 C84.34095567 429.31200737 77.32601972 434.75459719 70.31445312 440.20166016 C66.54184366 443.13299363 62.77099645 446.06659198 59 449 C57.50000877 450.16667794 56.00000876 451.3333446 54.5 452.5 C53.7575 453.0775 53.015 453.655 52.25 454.25 C50 456 47.75 457.75 45.5 459.5 C44.75709717 460.07782227 44.01419434 460.65564453 43.2487793 461.25097656 C41.75288338 462.41443312 40.25695255 463.57784478 38.76098633 464.74121094 C34.94790224 467.70661998 31.13547936 470.67287262 27.32421875 473.640625 C18.57091563 480.45526479 9.80317475 487.24986247 1 494 C-2.94995607 489.0685353 -5.29326806 483.38907655 -7.9375 477.6875 C-8.2214563 477.07552765 -8.5054126 476.4635553 -8.79797363 475.83303833 C-32.3244696 424.91887144 -47.43581409 370.55201524 -54.73571777 314.99145508 C-54.98388275 313.12144888 -55.24397094 311.25303596 -55.50488281 309.38476562 C-61.08297261 268.06301554 -60.76269815 222.26403974 -55 181 C-54.82039324 179.64660296 -54.6417157 178.29308234 -54.46386719 176.93945312 C-46.28651081 115.2682964 -28.04687226 55.55267326 0 0 Z " fill="#FABB05" transform="translate(108,353)"/>
</svg>
