<svg width="132" height="69" viewBox="0 0 132 69" fill="none" xmlns="http://www.w3.org/2000/svg">
<path d="M52 -1L54.9148 1.91484C55.5549 2.55492 55.6853 3.54511 55.2327 4.32905L52 9.9282M56.5 -1.5L59.4148 1.41484C60.0549 2.05492 60.1853 3.04511 59.7327 3.82905L56.5 9.4282M61 -2L63.9148 0.914837C64.5549 1.55492 64.6853 2.54511 64.2327 3.32905L61 8.9282M65.5 -2.5L68.4148 0.414837C69.0549 1.05492 69.1853 2.04511 68.7327 2.82905L65.5 8.4282M70 -3L72.9148 -0.0851631C73.5549 0.554918 73.6853 1.54511 73.2327 2.32905L70 7.9282M74.5 -3.5L77.4148 -0.585163C78.0549 0.0549183 78.1853 1.04511 77.7327 1.82905L74.5 7.4282M79 -4L81.9148 -1.08516C82.5549 -0.445082 82.6853 0.545113 82.2327 1.32905L79 6.9282M83.5 -4.5L86.4148 -1.58516C87.0549 -0.945082 87.1853 0.0451126 86.7327 0.829049L83.5 6.4282M88 -5L90.9148 -2.08516C91.5549 -1.44508 91.6853 -0.454887 91.2327 0.329049L88 5.9282M92.5 -5.5L95.4148 -2.58516C96.0549 -1.94508 96.1853 -0.954887 95.7327 -0.170951L92.5 5.4282M97 -6L99.9148 -3.08516C100.555 -2.44508 100.685 -1.45489 100.233 -0.670951L97 4.9282M101.5 -6.5L104.415 -3.58516C105.055 -2.94508 105.185 -1.95489 104.733 -1.17095L101.5 4.4282M106 -7L108.915 -4.08516C109.555 -3.44508 109.685 -2.45489 109.233 -1.67095L106 3.9282M110.5 -7.5L113.415 -4.58516C114.055 -3.94508 114.185 -2.95489 113.733 -2.17095L110.5 3.4282M115 -8L117.915 -5.08516C118.555 -4.44508 118.685 -3.45489 118.233 -2.67095L115 2.9282M119.5 -8.5L122.415 -5.58516C123.055 -4.94508 123.185 -3.95489 122.733 -3.17095L119.5 2.4282M124 -9L126.915 -6.08516C127.555 -5.44508 127.685 -4.45489 127.233 -3.67095L124 1.9282M128.5 -9.5L131.415 -6.58516C132.055 -5.94508 132.185 -4.95489 131.733 -4.17095L128.5 1.4282M133 -10L135.915 -7.08516C136.555 -6.44508 136.685 -5.45489 136.233 -4.67095L133 0.928204M137.5 -10.5L140.415 -7.58516C141.055 -6.94508 141.185 -5.95489 140.733 -5.17095L137.5 0.428204M142 -11L144.915 -8.08516C145.555 -7.44508 145.685 -6.45489 145.233 -5.67095L142 -0.0717964M146.5 -11.5L149.415 -8.58516C150.055 -7.94508 150.185 -6.95489 149.733 -6.17095L146.5 -0.571796M151 -12L153.915 -9.08516C154.555 -8.44508 154.685 -7.45489 154.233 -6.67095L151 -1.0718M155.5 -12.5L158.415 -9.58516C159.055 -8.94508 159.185 -7.95489 158.733 -7.17095L155.5 -1.5718M160 -13L162.915 -10.0852C163.555 -9.44508 163.685 -8.45489 163.233 -7.67095L160 -2.0718M164.5 -13.5L167.415 -10.5852C168.055 -9.94508 168.185 -8.95489 167.733 -8.17095L164.5 -2.5718M169 -14L171.915 -11.0852C172.555 -10.4451 172.685 -9.45489 172.233 -8.67095L169 -3.0718M173.5 -14.5L176.415 -11.5852C177.055 -10.9451 177.185 -9.95489 176.733 -9.17095L173.5 -3.5718M178 -15L180.915 -12.0852C181.555 -11.4451 181.685 -10.4549 181.233 -9.67095L178 -4.0718M43.5 11.5L46.4148 14.4148C47.0549 15.0549 47.1853 16.0451 46.7327 16.829L43.5 22.4282M48 11L50.9148 13.9148C51.5549 14.5549 51.6853 15.5451 51.2327 16.329L48 21.9282M52.5 10.5L55.4148 13.4148C56.0549 14.0549 56.1853 15.0451 55.7327 15.829L52.5 21.4282M57 10L59.9148 12.9148C60.5549 13.5549 60.6853 14.5451 60.2327 15.329L57 20.9282M61.5 9.5L64.4148 12.4148C65.0549 13.0549 65.1853 14.0451 64.7327 14.829L61.5 20.4282M66 9L68.9148 11.9148C69.5549 12.5549 69.6853 13.5451 69.2327 14.329L66 19.9282M70.5 8.5L73.4148 11.4148C74.0549 12.0549 74.1853 13.0451 73.7327 13.829L70.5 19.4282M75 8L77.9148 10.9148C78.5549 11.5549 78.6853 12.5451 78.2327 13.329L75 18.9282M79.5 7.5L82.4148 10.4148C83.0549 11.0549 83.1853 12.0451 82.7327 12.829L79.5 18.4282M84 7L86.9148 9.91484C87.5549 10.5549 87.6853 11.5451 87.2327 12.329L84 17.9282M88.5 6.5L91.4148 9.41484C92.0549 10.0549 92.1853 11.0451 91.7327 11.829L88.5 17.4282M93 6L95.9148 8.91484C96.5549 9.55492 96.6853 10.5451 96.2327 11.329L93 16.9282M97.5 5.5L100.415 8.41484C101.055 9.05492 101.185 10.0451 100.733 10.829L97.5 16.4282M102 5L104.915 7.91484C105.555 8.55492 105.685 9.54511 105.233 10.329L102 15.9282M106.5 4.5L109.415 7.41484C110.055 8.05492 110.185 9.04511 109.733 9.82905L106.5 15.4282M111 4L113.915 6.91484C114.555 7.55492 114.685 8.54511 114.233 9.32905L111 14.9282M115.5 3.5L118.415 6.41484C119.055 7.05492 119.185 8.04511 118.733 8.82905L115.5 14.4282M120 3L122.915 5.91484C123.555 6.55492 123.685 7.54511 123.233 8.32905L120 13.9282M124.5 2.5L127.415 5.41484C128.055 6.05492 128.185 7.04511 127.733 7.82905L124.5 13.4282M129 2L131.915 4.91484C132.555 5.55492 132.685 6.54511 132.233 7.32905L129 12.9282M133.5 1.5L136.415 4.41484C137.055 5.05492 137.185 6.04511 136.733 6.82905L133.5 12.4282M138 1L140.915 3.91484C141.555 4.55492 141.685 5.54511 141.233 6.32905L138 11.9282M142.5 0.5L145.415 3.41484C146.055 4.05492 146.185 5.04511 145.733 5.82905L142.5 11.4282M147 0L149.915 2.91484C150.555 3.55492 150.685 4.54511 150.233 5.32905L147 10.9282M151.5 -0.5L154.415 2.41484C155.055 3.05492 155.185 4.04511 154.733 4.82905L151.5 10.4282M156 -1L158.915 1.91484C159.555 2.55492 159.685 3.54511 159.233 4.32905L156 9.9282M160.5 -1.5L163.415 1.41484C164.055 2.05492 164.185 3.04511 163.733 3.82905L160.5 9.4282M165 -2L167.915 0.914837C168.555 1.55492 168.685 2.54511 168.233 3.32905L165 8.9282M169.5 -2.5L172.415 0.414837C173.055 1.05492 173.185 2.04511 172.733 2.82905L169.5 8.4282M35 24L37.9148 26.9148C38.5549 27.5549 38.6853 28.5451 38.2327 29.329L35 34.9282M39.5 23.5L42.4148 26.4148C43.0549 27.0549 43.1853 28.0451 42.7327 28.829L39.5 34.4282M44 23L46.9148 25.9148C47.5549 26.5549 47.6853 27.5451 47.2327 28.329L44 33.9282M48.5 22.5L51.4148 25.4148C52.0549 26.0549 52.1853 27.0451 51.7327 27.829L48.5 33.4282M53 22L55.9148 24.9148C56.5549 25.5549 56.6853 26.5451 56.2327 27.329L53 32.9282M57.5 21.5L60.4148 24.4148C61.0549 25.0549 61.1853 26.0451 60.7327 26.829L57.5 32.4282M62 21L64.9148 23.9148C65.5549 24.5549 65.6853 25.5451 65.2327 26.329L62 31.9282M66.5 20.5L69.4148 23.4148C70.0549 24.0549 70.1853 25.0451 69.7327 25.829L66.5 31.4282M71 20L73.9148 22.9148C74.5549 23.5549 74.6853 24.5451 74.2327 25.329L71 30.9282M75.5 19.5L78.4148 22.4148C79.0549 23.0549 79.1853 24.0451 78.7327 24.829L75.5 30.4282M80 19L82.9148 21.9148C83.5549 22.5549 83.6853 23.5451 83.2327 24.329L80 29.9282M84.5 18.5L87.4148 21.4148C88.0549 22.0549 88.1853 23.0451 87.7327 23.829L84.5 29.4282M89 18L91.9148 20.9148C92.5549 21.5549 92.6853 22.5451 92.2327 23.329L89 28.9282M93.5 17.5L96.4148 20.4148C97.0549 21.0549 97.1853 22.0451 96.7327 22.829L93.5 28.4282M98 17L100.915 19.9148C101.555 20.5549 101.685 21.5451 101.233 22.329L98 27.9282M102.5 16.5L105.415 19.4148C106.055 20.0549 106.185 21.0451 105.733 21.829L102.5 27.4282M107 16L109.915 18.9148C110.555 19.5549 110.685 20.5451 110.233 21.329L107 26.9282M111.5 15.5L114.415 18.4148C115.055 19.0549 115.185 20.0451 114.733 20.829L111.5 26.4282M116 15L118.915 17.9148C119.555 18.5549 119.685 19.5451 119.233 20.329L116 25.9282M120.5 14.5L123.415 17.4148C124.055 18.0549 124.185 19.0451 123.733 19.829L120.5 25.4282M125 14L127.915 16.9148C128.555 17.5549 128.685 18.5451 128.233 19.329L125 24.9282M129.5 13.5L132.415 16.4148C133.055 17.0549 133.185 18.0451 132.733 18.829L129.5 24.4282M134 13L136.915 15.9148C137.555 16.5549 137.685 17.5451 137.233 18.329L134 23.9282M138.5 12.5L141.415 15.4148C142.055 16.0549 142.185 17.0451 141.733 17.829L138.5 23.4282M143 12L145.915 14.9148C146.555 15.5549 146.685 16.5451 146.233 17.329L143 22.9282M147.5 11.5L150.415 14.4148C151.055 15.0549 151.185 16.0451 150.733 16.829L147.5 22.4282M152 11L154.915 13.9148C155.555 14.5549 155.685 15.5451 155.233 16.329L152 21.9282M156.5 10.5L159.415 13.4148C160.055 14.0549 160.185 15.0451 159.733 15.829L156.5 21.4282M161 10L163.915 12.9148C164.555 13.5549 164.685 14.5451 164.233 15.329L161 20.9282M26.5 36.5L29.4148 39.4148C30.0549 40.0549 30.1853 41.0451 29.7327 41.829L26.5 47.4282M31 36L33.9148 38.9148C34.5549 39.5549 34.6853 40.5451 34.2327 41.329L31 46.9282M35.5 35.5L38.4148 38.4148C39.0549 39.0549 39.1853 40.0451 38.7327 40.829L35.5 46.4282M40 35L42.9148 37.9148C43.5549 38.5549 43.6853 39.5451 43.2327 40.329L40 45.9282M44.5 34.5L47.4148 37.4148C48.0549 38.0549 48.1853 39.0451 47.7327 39.829L44.5 45.4282M49 34L51.9148 36.9148C52.5549 37.5549 52.6853 38.5451 52.2327 39.329L49 44.9282M53.5 33.5L56.4148 36.4148C57.0549 37.0549 57.1853 38.0451 56.7327 38.829L53.5 44.4282M58 33L60.9148 35.9148C61.5549 36.5549 61.6853 37.5451 61.2327 38.329L58 43.9282M62.5 32.5L65.4148 35.4148C66.0549 36.0549 66.1853 37.0451 65.7327 37.829L62.5 43.4282M67 32L69.9148 34.9148C70.5549 35.5549 70.6853 36.5451 70.2327 37.329L67 42.9282M71.5 31.5L74.4148 34.4148C75.0549 35.0549 75.1853 36.0451 74.7327 36.829L71.5 42.4282M76 31L78.9148 33.9148C79.5549 34.5549 79.6853 35.5451 79.2327 36.329L76 41.9282M80.5 30.5L83.4148 33.4148C84.0549 34.0549 84.1853 35.0451 83.7327 35.829L80.5 41.4282M85 30L87.9148 32.9148C88.5549 33.5549 88.6853 34.5451 88.2327 35.329L85 40.9282M89.5 29.5L92.4148 32.4148C93.0549 33.0549 93.1853 34.0451 92.7327 34.829L89.5 40.4282M94 29L96.9148 31.9148C97.5549 32.5549 97.6853 33.5451 97.2327 34.329L94 39.9282M98.5 28.5L101.415 31.4148C102.055 32.0549 102.185 33.0451 101.733 33.829L98.5 39.4282M103 28L105.915 30.9148C106.555 31.5549 106.685 32.5451 106.233 33.329L103 38.9282M107.5 27.5L110.415 30.4148C111.055 31.0549 111.185 32.0451 110.733 32.829L107.5 38.4282M112 27L114.915 29.9148C115.555 30.5549 115.685 31.5451 115.233 32.329L112 37.9282M116.5 26.5L119.415 29.4148C120.055 30.0549 120.185 31.0451 119.733 31.829L116.5 37.4282M121 26L123.915 28.9148C124.555 29.5549 124.685 30.5451 124.233 31.329L121 36.9282M125.5 25.5L128.415 28.4148C129.055 29.0549 129.185 30.0451 128.733 30.829L125.5 36.4282M130 25L132.915 27.9148C133.555 28.5549 133.685 29.5451 133.233 30.329L130 35.9282M134.5 24.5L137.415 27.4148C138.055 28.0549 138.185 29.0451 137.733 29.829L134.5 35.4282M139 24L141.915 26.9148C142.555 27.5549 142.685 28.5451 142.233 29.329L139 34.9282M143.5 23.5L146.415 26.4148C147.055 27.0549 147.185 28.0451 146.733 28.829L143.5 34.4282M148 23L150.915 25.9148C151.555 26.5549 151.685 27.5451 151.233 28.329L148 33.9282M152.5 22.5L155.415 25.4148C156.055 26.0549 156.185 27.0451 155.733 27.829L152.5 33.4282M18 49L20.9148 51.9148C21.5549 52.5549 21.6853 53.5451 21.2327 54.329L18 59.9282M22.5 48.5L25.4148 51.4148C26.0549 52.0549 26.1853 53.0451 25.7327 53.829L22.5 59.4282M27 48L29.9148 50.9148C30.5549 51.5549 30.6853 52.5451 30.2327 53.329L27 58.9282M31.5 47.5L34.4148 50.4148C35.0549 51.0549 35.1853 52.0451 34.7327 52.829L31.5 58.4282M36 47L38.9148 49.9148C39.5549 50.5549 39.6853 51.5451 39.2327 52.329L36 57.9282M40.5 46.5L43.4148 49.4148C44.0549 50.0549 44.1853 51.0451 43.7327 51.829L40.5 57.4282M45 46L47.9148 48.9148C48.5549 49.5549 48.6853 50.5451 48.2327 51.329L45 56.9282M49.5 45.5L52.4148 48.4148C53.0549 49.0549 53.1853 50.0451 52.7327 50.829L49.5 56.4282M54 45L56.9148 47.9148C57.5549 48.5549 57.6853 49.5451 57.2327 50.329L54 55.9282M58.5 44.5L61.4148 47.4148C62.0549 48.0549 62.1853 49.0451 61.7327 49.829L58.5 55.4282M63 44L65.9148 46.9148C66.5549 47.5549 66.6853 48.5451 66.2327 49.329L63 54.9282M67.5 43.5L70.4148 46.4148C71.0549 47.0549 71.1853 48.0451 70.7327 48.829L67.5 54.4282M72 43L74.9148 45.9148C75.5549 46.5549 75.6853 47.5451 75.2327 48.329L72 53.9282M76.5 42.5L79.4148 45.4148C80.0549 46.0549 80.1853 47.0451 79.7327 47.829L76.5 53.4282M81 42L83.9148 44.9148C84.5549 45.5549 84.6853 46.5451 84.2327 47.329L81 52.9282M85.5 41.5L88.4148 44.4148C89.0549 45.0549 89.1853 46.0451 88.7327 46.829L85.5 52.4282M90 41L92.9148 43.9148C93.5549 44.5549 93.6853 45.5451 93.2327 46.329L90 51.9282M94.5 40.5L97.4148 43.4148C98.0549 44.0549 98.1853 45.0451 97.7327 45.829L94.5 51.4282M99 40L101.915 42.9148C102.555 43.5549 102.685 44.5451 102.233 45.329L99 50.9282M103.5 39.5L106.415 42.4148C107.055 43.0549 107.185 44.0451 106.733 44.829L103.5 50.4282M108 39L110.915 41.9148C111.555 42.5549 111.685 43.5451 111.233 44.329L108 49.9282M112.5 38.5L115.415 41.4148C116.055 42.0549 116.185 43.0451 115.733 43.829L112.5 49.4282M117 38L119.915 40.9148C120.555 41.5549 120.685 42.5451 120.233 43.329L117 48.9282M121.5 37.5L124.415 40.4148C125.055 41.0549 125.185 42.0451 124.733 42.829L121.5 48.4282M126 37L128.915 39.9148C129.555 40.5549 129.685 41.5451 129.233 42.329L126 47.9282M130.5 36.5L133.415 39.4148C134.055 40.0549 134.185 41.0451 133.733 41.829L130.5 47.4282M135 36L137.915 38.9148C138.555 39.5549 138.685 40.5451 138.233 41.329L135 46.9282M139.5 35.5L142.415 38.4148C143.055 39.0549 143.185 40.0451 142.733 40.829L139.5 46.4282M144 35L146.915 37.9148C147.555 38.5549 147.685 39.5451 147.233 40.329L144 45.9282M9.5 61.5L12.4148 64.4148C13.0549 65.0549 13.1853 66.0451 12.7327 66.829L9.5 72.4282M14 61L16.9148 63.9148C17.5549 64.5549 17.6853 65.5451 17.2327 66.329L14 71.9282M18.5 60.5L21.4148 63.4148C22.0549 64.0549 22.1853 65.0451 21.7327 65.829L18.5 71.4282M23 60L25.9148 62.9148C26.5549 63.5549 26.6853 64.5451 26.2327 65.329L23 70.9282M27.5 59.5L30.4148 62.4148C31.0549 63.0549 31.1853 64.0451 30.7327 64.829L27.5 70.4282M32 59L34.9148 61.9148C35.5549 62.5549 35.6853 63.5451 35.2327 64.329L32 69.9282M36.5 58.5L39.4148 61.4148C40.0549 62.0549 40.1853 63.0451 39.7327 63.829L36.5 69.4282M41 58L43.9148 60.9148C44.5549 61.5549 44.6853 62.5451 44.2327 63.329L41 68.9282M45.5 57.5L48.4148 60.4148C49.0549 61.0549 49.1853 62.0451 48.7327 62.829L45.5 68.4282M50 57L52.9148 59.9148C53.5549 60.5549 53.6853 61.5451 53.2327 62.329L50 67.9282M54.5 56.5L57.4148 59.4148C58.0549 60.0549 58.1853 61.0451 57.7327 61.829L54.5 67.4282M59 56L61.9148 58.9148C62.5549 59.5549 62.6853 60.5451 62.2327 61.329L59 66.9282M63.5 55.5L66.4148 58.4148C67.0549 59.0549 67.1853 60.0451 66.7327 60.829L63.5 66.4282M68 55L70.9148 57.9148C71.5549 58.5549 71.6853 59.5451 71.2327 60.329L68 65.9282M72.5 54.5L75.4148 57.4148C76.0549 58.0549 76.1853 59.0451 75.7327 59.829L72.5 65.4282M77 54L79.9148 56.9148C80.5549 57.5549 80.6853 58.5451 80.2327 59.329L77 64.9282M81.5 53.5L84.4148 56.4148C85.0549 57.0549 85.1853 58.0451 84.7327 58.829L81.5 64.4282M86 53L88.9148 55.9148C89.5549 56.5549 89.6853 57.5451 89.2327 58.329L86 63.9282M90.5 52.5L93.4148 55.4148C94.0549 56.0549 94.1853 57.0451 93.7327 57.829L90.5 63.4282M95 52L97.9148 54.9148C98.5549 55.5549 98.6853 56.5451 98.2327 57.329L95 62.9282M99.5 51.5L102.415 54.4148C103.055 55.0549 103.185 56.0451 102.733 56.829L99.5 62.4282M104 51L106.915 53.9148C107.555 54.5549 107.685 55.5451 107.233 56.329L104 61.9282M108.5 50.5L111.415 53.4148C112.055 54.0549 112.185 55.0451 111.733 55.829L108.5 61.4282M113 50L115.915 52.9148C116.555 53.5549 116.685 54.5451 116.233 55.329L113 60.9282M117.5 49.5L120.415 52.4148C121.055 53.0549 121.185 54.0451 120.733 54.829L117.5 60.4282M122 49L124.915 51.9148C125.555 52.5549 125.685 53.5451 125.233 54.329L122 59.9282M126.5 48.5L129.415 51.4148C130.055 52.0549 130.185 53.0451 129.733 53.829L126.5 59.4282M131 48L133.915 50.9148C134.555 51.5549 134.685 52.5451 134.233 53.329L131 58.9282M135.5 47.5L138.415 50.4148C139.055 51.0549 139.185 52.0451 138.733 52.829L135.5 58.4282M1 74L3.91484 76.9148C4.55492 77.5549 4.68528 78.5451 4.23267 79.329L1 84.9282M5.5 73.5L8.41484 76.4148C9.05492 77.0549 9.18528 78.0451 8.73267 78.829L5.5 84.4282M10 73L12.9148 75.9148C13.5549 76.5549 13.6853 77.5451 13.2327 78.329L10 83.9282M14.5 72.5L17.4148 75.4148C18.0549 76.0549 18.1853 77.0451 17.7327 77.829L14.5 83.4282M19 72L21.9148 74.9148C22.5549 75.5549 22.6853 76.5451 22.2327 77.329L19 82.9282M23.5 71.5L26.4148 74.4148C27.0549 75.0549 27.1853 76.0451 26.7327 76.829L23.5 82.4282M28 71L30.9148 73.9148C31.5549 74.5549 31.6853 75.5451 31.2327 76.329L28 81.9282M32.5 70.5L35.4148 73.4148C36.0549 74.0549 36.1853 75.0451 35.7327 75.829L32.5 81.4282M37 70L39.9148 72.9148C40.5549 73.5549 40.6853 74.5451 40.2327 75.329L37 80.9282M41.5 69.5L44.4148 72.4148C45.0549 73.0549 45.1853 74.0451 44.7327 74.829L41.5 80.4282M46 69L48.9148 71.9148C49.5549 72.5549 49.6853 73.5451 49.2327 74.329L46 79.9282M50.5 68.5L53.4148 71.4148C54.0549 72.0549 54.1853 73.0451 53.7327 73.829L50.5 79.4282M55 68L57.9148 70.9148C58.5549 71.5549 58.6853 72.5451 58.2327 73.329L55 78.9282M59.5 67.5L62.4148 70.4148C63.0549 71.0549 63.1853 72.0451 62.7327 72.829L59.5 78.4282M64 67L66.9148 69.9148C67.5549 70.5549 67.6853 71.5451 67.2327 72.329L64 77.9282M68.5 66.5L71.4148 69.4148C72.0549 70.0549 72.1853 71.0451 71.7327 71.829L68.5 77.4282M73 66L75.9148 68.9148C76.5549 69.5549 76.6853 70.5451 76.2327 71.329L73 76.9282M77.5 65.5L80.4148 68.4148C81.0549 69.0549 81.1853 70.0451 80.7327 70.829L77.5 76.4282M82 65L84.9148 67.9148C85.5549 68.5549 85.6853 69.5451 85.2327 70.329L82 75.9282M86.5 64.5L89.4148 67.4148C90.0549 68.0549 90.1853 69.0451 89.7327 69.829L86.5 75.4282M91 64L93.9148 66.9148C94.5549 67.5549 94.6853 68.5451 94.2327 69.329L91 74.9282M95.5 63.5L98.4148 66.4148C99.0549 67.0549 99.1853 68.0451 98.7327 68.829L95.5 74.4282M100 63L102.915 65.9148C103.555 66.5549 103.685 67.5451 103.233 68.329L100 73.9282M104.5 62.5L107.415 65.4148C108.055 66.0549 108.185 67.0451 107.733 67.829L104.5 73.4282M109 62L111.915 64.9148C112.555 65.5549 112.685 66.5451 112.233 67.329L109 72.9282M113.5 61.5L116.415 64.4148C117.055 65.0549 117.185 66.0451 116.733 66.829L113.5 72.4282M118 61L120.915 63.9148C121.555 64.5549 121.685 65.5451 121.233 66.329L118 71.9282M122.5 60.5L125.415 63.4148C126.055 64.0549 126.185 65.0451 125.733 65.829L122.5 71.4282M127 60L129.915 62.9148C130.555 63.5549 130.685 64.5451 130.233 65.329L127 70.9282" stroke="url(#paint0_linear_1759_12097)" stroke-linecap="round"/>
<defs>
<linearGradient id="paint0_linear_1759_12097" x1="194.805" y1="164.591" x2="40.9878" y2="202.839" gradientUnits="userSpaceOnUse">
<stop stop-color="#FEDF89"/>
<stop offset="0.305" stop-color="#FDB022"/>
<stop offset="0.7" stop-color="#FEDF89" stop-opacity="0.6"/>
<stop offset="1" stop-color="#FDB022" stop-opacity="0"/>
</linearGradient>
</defs>
</svg>
